<mxfile host="app.diagrams.net" modified="2023-12-01T20:10:13.150Z" agent="Mozilla/5.0 (Windows NT 10.0; Win64; x64) AppleWebKit/537.36 (KHTML, like Gecko) Chrome/119.0.0.0 Safari/537.36" etag="_fJ55Y9jY-6O5yyxMPeX" version="22.1.5" type="device">
  <diagram name="Stránka-1" id="Ws_4WNnmmAXJiaBilU-j">
    <mxGraphModel dx="1434" dy="758" grid="1" gridSize="10" guides="1" tooltips="1" connect="1" arrows="1" fold="1" page="1" pageScale="1" pageWidth="827" pageHeight="1169" math="0" shadow="0">
      <root>
        <mxCell id="0" />
        <mxCell id="1" parent="0" />
        <mxCell id="JHc48PycI52fIAh6Qi8w-1" value="Zobrazit vlastní polohu na digitální mapě" style="ellipse;whiteSpace=wrap;html=1;" parent="1" vertex="1">
          <mxGeometry x="320" y="190" width="120" height="80" as="geometry" />
        </mxCell>
        <mxCell id="JHc48PycI52fIAh6Qi8w-26" value="&amp;lt;&amp;lt;extends&amp;gt;&amp;gt;" style="rounded=0;orthogonalLoop=1;jettySize=auto;html=1;endArrow=none;endFill=0;dashed=1;" parent="1" source="JHc48PycI52fIAh6Qi8w-2" target="JHc48PycI52fIAh6Qi8w-6" edge="1">
          <mxGeometry relative="1" as="geometry" />
        </mxCell>
        <mxCell id="JHc48PycI52fIAh6Qi8w-2" value="Zadat nový Bod na digitální mapě" style="ellipse;whiteSpace=wrap;html=1;" parent="1" vertex="1">
          <mxGeometry x="460" y="190" width="120" height="80" as="geometry" />
        </mxCell>
        <mxCell id="JHc48PycI52fIAh6Qi8w-27" value="&amp;lt;&amp;lt;extends&amp;gt;&amp;gt;" style="rounded=0;orthogonalLoop=1;jettySize=auto;html=1;dashed=1;endArrow=none;endFill=0;" parent="1" source="JHc48PycI52fIAh6Qi8w-3" target="JHc48PycI52fIAh6Qi8w-6" edge="1">
          <mxGeometry relative="1" as="geometry" />
        </mxCell>
        <mxCell id="JHc48PycI52fIAh6Qi8w-3" value="Zadat novou plochu na digitální mapě" style="ellipse;whiteSpace=wrap;html=1;" parent="1" vertex="1">
          <mxGeometry x="460" y="290" width="120" height="80" as="geometry" />
        </mxCell>
        <mxCell id="JHc48PycI52fIAh6Qi8w-4" value="Zobrazit polohu ostatních uživatelů na digitální mapě" style="ellipse;whiteSpace=wrap;html=1;" parent="1" vertex="1">
          <mxGeometry x="190" y="250" width="120" height="80" as="geometry" />
        </mxCell>
        <mxCell id="JHc48PycI52fIAh6Qi8w-28" value="&amp;lt;&amp;lt;extends&amp;gt;&amp;gt;" style="rounded=0;orthogonalLoop=1;jettySize=auto;html=1;dashed=1;endArrow=none;endFill=0;" parent="1" source="JHc48PycI52fIAh6Qi8w-5" target="JHc48PycI52fIAh6Qi8w-6" edge="1">
          <mxGeometry relative="1" as="geometry" />
        </mxCell>
        <mxCell id="JHc48PycI52fIAh6Qi8w-5" value="Zadat novou cestu na digitální mapě" style="ellipse;whiteSpace=wrap;html=1;" parent="1" vertex="1">
          <mxGeometry x="480" y="380" width="120" height="80" as="geometry" />
        </mxCell>
        <mxCell id="JHc48PycI52fIAh6Qi8w-6" value="Přiřadit obrázek/fotografii k mapovému objektu" style="ellipse;whiteSpace=wrap;html=1;" parent="1" vertex="1">
          <mxGeometry x="650" y="290" width="120" height="80" as="geometry" />
        </mxCell>
        <mxCell id="JHc48PycI52fIAh6Qi8w-34" value="&amp;lt;&amp;lt;extends&amp;gt;&amp;gt;" style="rounded=0;orthogonalLoop=1;jettySize=auto;html=1;dashed=1;endArrow=none;endFill=0;" parent="1" source="JHc48PycI52fIAh6Qi8w-7" target="JHc48PycI52fIAh6Qi8w-8" edge="1">
          <mxGeometry relative="1" as="geometry" />
        </mxCell>
        <mxCell id="JHc48PycI52fIAh6Qi8w-35" value="&amp;lt;&amp;lt;extends&amp;gt;&amp;gt;" style="rounded=0;orthogonalLoop=1;jettySize=auto;html=1;dashed=1;endArrow=none;endFill=0;" parent="1" source="JHc48PycI52fIAh6Qi8w-7" target="JHc48PycI52fIAh6Qi8w-9" edge="1">
          <mxGeometry relative="1" as="geometry" />
        </mxCell>
        <mxCell id="JHc48PycI52fIAh6Qi8w-7" value="Zobrazit dostupné kontakty" style="ellipse;whiteSpace=wrap;html=1;" parent="1" vertex="1">
          <mxGeometry x="180" y="470" width="120" height="80" as="geometry" />
        </mxCell>
        <mxCell id="JHc48PycI52fIAh6Qi8w-8" value="Odeslat hlášení velitelskému štábu" style="ellipse;whiteSpace=wrap;html=1;" parent="1" vertex="1">
          <mxGeometry x="390" y="470" width="120" height="80" as="geometry" />
        </mxCell>
        <mxCell id="JHc48PycI52fIAh6Qi8w-9" value="Poslat zprávu dalšímu uživately" style="ellipse;whiteSpace=wrap;html=1;" parent="1" vertex="1">
          <mxGeometry x="390" y="560" width="120" height="80" as="geometry" />
        </mxCell>
        <mxCell id="JHc48PycI52fIAh6Qi8w-10" value="Odeslat rozkaz uživately" style="ellipse;whiteSpace=wrap;html=1;" parent="1" vertex="1">
          <mxGeometry x="180" y="150" width="120" height="80" as="geometry" />
        </mxCell>
        <mxCell id="JHc48PycI52fIAh6Qi8w-11" value="Vzdálené odepření přístupu zařízení" style="ellipse;whiteSpace=wrap;html=1;" parent="1" vertex="1">
          <mxGeometry x="320" y="80" width="120" height="80" as="geometry" />
        </mxCell>
        <mxCell id="JHc48PycI52fIAh6Qi8w-29" value="&amp;lt;&amp;lt;extends&amp;gt;&amp;gt;" style="rounded=0;orthogonalLoop=1;jettySize=auto;html=1;dashed=1;endArrow=none;endFill=0;" parent="1" source="JHc48PycI52fIAh6Qi8w-12" target="JHc48PycI52fIAh6Qi8w-4" edge="1">
          <mxGeometry relative="1" as="geometry" />
        </mxCell>
        <mxCell id="JHc48PycI52fIAh6Qi8w-30" value="&amp;lt;&amp;lt;extends&amp;gt;&amp;gt;" style="rounded=0;orthogonalLoop=1;jettySize=auto;html=1;dashed=1;endArrow=none;endFill=0;" parent="1" source="JHc48PycI52fIAh6Qi8w-12" target="JHc48PycI52fIAh6Qi8w-1" edge="1">
          <mxGeometry relative="1" as="geometry" />
        </mxCell>
        <mxCell id="JHc48PycI52fIAh6Qi8w-31" value="&amp;lt;&amp;lt;extends&amp;gt;&amp;gt;" style="rounded=0;orthogonalLoop=1;jettySize=auto;html=1;dashed=1;endArrow=none;endFill=0;" parent="1" source="JHc48PycI52fIAh6Qi8w-12" target="JHc48PycI52fIAh6Qi8w-2" edge="1">
          <mxGeometry relative="1" as="geometry" />
        </mxCell>
        <mxCell id="JHc48PycI52fIAh6Qi8w-32" value="&amp;lt;&amp;lt;extends&amp;gt;&amp;gt;" style="rounded=0;orthogonalLoop=1;jettySize=auto;html=1;dashed=1;endArrow=none;endFill=0;" parent="1" source="JHc48PycI52fIAh6Qi8w-12" target="JHc48PycI52fIAh6Qi8w-3" edge="1">
          <mxGeometry relative="1" as="geometry" />
        </mxCell>
        <mxCell id="JHc48PycI52fIAh6Qi8w-33" value="&amp;lt;&amp;lt;extends&amp;gt;&amp;gt;" style="rounded=0;orthogonalLoop=1;jettySize=auto;html=1;dashed=1;endArrow=none;endFill=0;" parent="1" source="JHc48PycI52fIAh6Qi8w-12" target="JHc48PycI52fIAh6Qi8w-5" edge="1">
          <mxGeometry relative="1" as="geometry" />
        </mxCell>
        <mxCell id="JHc48PycI52fIAh6Qi8w-12" value="Prohlížení digitální mapy" style="ellipse;whiteSpace=wrap;html=1;" parent="1" vertex="1">
          <mxGeometry x="270" y="380" width="120" height="80" as="geometry" />
        </mxCell>
        <mxCell id="JHc48PycI52fIAh6Qi8w-13" value="Vytvořit akci" style="ellipse;whiteSpace=wrap;html=1;" parent="1" vertex="1">
          <mxGeometry x="180" y="720" width="120" height="80" as="geometry" />
        </mxCell>
        <mxCell id="JHc48PycI52fIAh6Qi8w-14" value="Přihlásit se do akce" style="ellipse;whiteSpace=wrap;html=1;" parent="1" vertex="1">
          <mxGeometry x="280" y="650" width="120" height="80" as="geometry" />
        </mxCell>
        <mxCell id="JHc48PycI52fIAh6Qi8w-15" value="Odeslat hromadný rozkaz" style="ellipse;whiteSpace=wrap;html=1;" parent="1" vertex="1">
          <mxGeometry x="180" y="30" width="120" height="80" as="geometry" />
        </mxCell>
        <mxCell id="JHc48PycI52fIAh6Qi8w-16" value="Vybrat zdroj map" style="ellipse;whiteSpace=wrap;html=1;" parent="1" vertex="1">
          <mxGeometry x="180" y="580" width="120" height="80" as="geometry" />
        </mxCell>
        <mxCell id="JHc48PycI52fIAh6Qi8w-37" style="rounded=0;orthogonalLoop=1;jettySize=auto;html=1;endArrow=none;endFill=0;" parent="1" source="JHc48PycI52fIAh6Qi8w-17" target="JHc48PycI52fIAh6Qi8w-13" edge="1">
          <mxGeometry relative="1" as="geometry" />
        </mxCell>
        <mxCell id="JHc48PycI52fIAh6Qi8w-38" style="rounded=0;orthogonalLoop=1;jettySize=auto;html=1;endArrow=none;endFill=0;" parent="1" source="JHc48PycI52fIAh6Qi8w-17" target="JHc48PycI52fIAh6Qi8w-16" edge="1">
          <mxGeometry relative="1" as="geometry" />
        </mxCell>
        <mxCell id="JHc48PycI52fIAh6Qi8w-39" style="rounded=0;orthogonalLoop=1;jettySize=auto;html=1;endArrow=none;endFill=0;" parent="1" source="JHc48PycI52fIAh6Qi8w-17" target="JHc48PycI52fIAh6Qi8w-14" edge="1">
          <mxGeometry relative="1" as="geometry" />
        </mxCell>
        <mxCell id="JHc48PycI52fIAh6Qi8w-17" value="Uživatel&lt;br&gt;zařízení" style="shape=umlActor;verticalLabelPosition=bottom;verticalAlign=top;html=1;outlineConnect=0;" parent="1" vertex="1">
          <mxGeometry x="50" y="640" width="30" height="60" as="geometry" />
        </mxCell>
        <mxCell id="JHc48PycI52fIAh6Qi8w-24" style="edgeStyle=orthogonalEdgeStyle;rounded=0;orthogonalLoop=1;jettySize=auto;html=1;endArrow=block;endFill=0;" parent="1" target="JHc48PycI52fIAh6Qi8w-17" edge="1">
          <mxGeometry relative="1" as="geometry">
            <mxPoint x="65" y="450" as="sourcePoint" />
          </mxGeometry>
        </mxCell>
        <mxCell id="JHc48PycI52fIAh6Qi8w-40" style="rounded=0;orthogonalLoop=1;jettySize=auto;html=1;endArrow=none;endFill=0;" parent="1" source="JHc48PycI52fIAh6Qi8w-19" target="JHc48PycI52fIAh6Qi8w-7" edge="1">
          <mxGeometry relative="1" as="geometry" />
        </mxCell>
        <mxCell id="JHc48PycI52fIAh6Qi8w-41" style="rounded=0;orthogonalLoop=1;jettySize=auto;html=1;endArrow=none;endFill=0;" parent="1" source="JHc48PycI52fIAh6Qi8w-19" target="JHc48PycI52fIAh6Qi8w-12" edge="1">
          <mxGeometry relative="1" as="geometry" />
        </mxCell>
        <mxCell id="JHc48PycI52fIAh6Qi8w-19" value="Voják" style="shape=umlActor;verticalLabelPosition=bottom;verticalAlign=top;html=1;outlineConnect=0;" parent="1" vertex="1">
          <mxGeometry x="50" y="360" width="30" height="60" as="geometry" />
        </mxCell>
        <mxCell id="JHc48PycI52fIAh6Qi8w-23" style="edgeStyle=orthogonalEdgeStyle;rounded=0;orthogonalLoop=1;jettySize=auto;html=1;endArrow=block;endFill=0;" parent="1" target="JHc48PycI52fIAh6Qi8w-19" edge="1">
          <mxGeometry relative="1" as="geometry">
            <mxPoint x="65" y="210" as="sourcePoint" />
          </mxGeometry>
        </mxCell>
        <mxCell id="JHc48PycI52fIAh6Qi8w-42" style="rounded=0;orthogonalLoop=1;jettySize=auto;html=1;endArrow=none;endFill=0;" parent="1" source="JHc48PycI52fIAh6Qi8w-20" target="JHc48PycI52fIAh6Qi8w-10" edge="1">
          <mxGeometry relative="1" as="geometry" />
        </mxCell>
        <mxCell id="JHc48PycI52fIAh6Qi8w-43" style="rounded=0;orthogonalLoop=1;jettySize=auto;html=1;endArrow=none;endFill=0;" parent="1" source="JHc48PycI52fIAh6Qi8w-20" target="JHc48PycI52fIAh6Qi8w-15" edge="1">
          <mxGeometry relative="1" as="geometry" />
        </mxCell>
        <mxCell id="JHc48PycI52fIAh6Qi8w-44" style="rounded=0;orthogonalLoop=1;jettySize=auto;html=1;endArrow=none;endFill=0;" parent="1" source="JHc48PycI52fIAh6Qi8w-20" target="JHc48PycI52fIAh6Qi8w-11" edge="1">
          <mxGeometry relative="1" as="geometry" />
        </mxCell>
        <mxCell id="JHc48PycI52fIAh6Qi8w-20" value="Štáb" style="shape=umlActor;verticalLabelPosition=bottom;verticalAlign=top;html=1;outlineConnect=0;" parent="1" vertex="1">
          <mxGeometry x="50" y="120" width="30" height="60" as="geometry" />
        </mxCell>
        <mxCell id="JHc48PycI52fIAh6Qi8w-46" value="" style="rounded=0;whiteSpace=wrap;html=1;fillColor=none;" parent="1" vertex="1">
          <mxGeometry x="160" y="20" width="620" height="790" as="geometry" />
        </mxCell>
      </root>
    </mxGraphModel>
  </diagram>
</mxfile>
